# xmcd CD database file
#
# Track frame offsets:
#	150
#	13542
#	25662
#	55725
#	80608
#	93917
#	111242
#	126084
#	145669
#	166793
#	181335
#	197087
#	208675
#	227018
#	237966
#	252169
#
# Disc length: 3587 seconds
#
# Revision: 0
# Processed by: cddbd v1.5.2PL0 Copyright (c) Steve Scherf et al.
# Submitted via: CDex 1.51
#
DISCID=c90e0110
DTITLE=SwingING - Big TUHH Band - Best Of Live
DYEAR=2018
DGENRE=Jazz
TTITLE0=Trumpet Blues And Cantabile
TTITLE1=The Best Is Yet To Come
TTITLE2=A Warm Breeze
TTITLE3=The Things We Did Last Summer
TTITLE4=Vino Y Champan (Champagne And WIne)
TTITLE5=Take The A-Train
TTITLE6=I've Got A Crush On You
TTITLE7=Whirly Bird
TTITLE8=I Left My Heart In San Francisco
TTITLE9=Flight Of The Foo Birds
TTITLE10=It's Only A Paper Moon
TTITLE11=Ain't That A Kick In The Head
TTITLE12=What A Wonderful World
TTITLE13=A-Tisket, A-Tasket
TTITLE14=Cherokee
TTITLE15=Goodbye
EXTD=YEAR: 2018
EXTT0=
EXTT1=
EXTT2=
EXTT3=
EXTT4=
EXTT5=
EXTT6=
EXTT7=
EXTT8=
EXTT9=
EXTT10=
EXTT11=
EXTT12=
EXTT13=
EXTT14=
EXTT15=
PLAYORDER=
